<svg xmlns="http://www.w3.org/2000/svg" xmlns:xlink="http://www.w3.org/1999/xlink" width="2000" zoomAndPan="magnify" viewBox="0 0 1500 1499.999933" height="2000" preserveAspectRatio="xMidYMid meet" version="1.0"><defs><g/><clipPath id="282051c1f7"><rect x="0" width="485" y="0" height="687"/></clipPath><clipPath id="19db4f3824"><rect x="0" width="446" y="0" height="664"/></clipPath><clipPath id="8807038511"><rect x="0" width="153" y="0" height="411"/></clipPath></defs><rect x="-150" width="1800" fill="#ffffff" y="-149.999993" height="1799.99992" fill-opacity="1"/><rect x="-150" width="1800" fill="#ffffff" y="-149.999993" height="1799.99992" fill-opacity="1"/><g transform="matrix(1, 0, 0, 1, 419, 502)"><g clip-path="url(#282051c1f7)"><g fill="#111b2e" fill-opacity="1"><g transform="translate(26.941001, 487.781218)"><g><path d="M 423.140625 -460.859375 L 316.839844 -460.859375 L 316.839844 -452.628906 L 364.847656 -452.628906 L 244.144531 -96.011719 L 242.085938 -96.011719 L 94.640625 -452.628906 L 142.648438 -452.628906 L 142.648438 -460.859375 L -24.6875 -460.859375 L -24.6875 -452.628906 L 23.316406 -452.628906 L 213.96875 10.285156 L 219.457031 10.285156 L 375.132812 -452.628906 L 423.140625 -452.628906 Z M 423.140625 -460.859375 "/></g></g></g></g></g><g transform="matrix(1, 0, 0, 1, 559, 665)"><g clip-path="url(#19db4f3824)"><g fill="#111b2e" fill-opacity="1"><g transform="translate(25.593635, 471.579966)"><g><path d="M 397.644531 -7.953125 L 351.914062 -7.953125 L 187.554688 -455.304688 L 181.589844 -455.304688 L 23.859375 -7.953125 L -21.871094 -7.953125 L -21.871094 0 L 79.527344 0 L 79.527344 -7.953125 L 33.136719 -7.953125 L 79.527344 -140.5 L 234.609375 -140.5 L 282.992188 -7.953125 L 236.597656 -7.953125 L 236.597656 0 L 397.644531 0 Z M 82.84375 -149.78125 L 155.082031 -353.242188 L 157.070312 -353.242188 L 231.296875 -149.78125 Z M 82.84375 -149.78125 "/></g></g></g></g></g><g transform="matrix(1, 0, 0, 1, 609, 395)"><g clip-path="url(#8807038511)"><g fill="#111b2e" fill-opacity="1"><g transform="translate(0.40375, 291.764683)"><g><path d="M 99.191406 -242.238281 C 99.191406 -249.617188 92.632812 -254.535156 87.714844 -254.535156 C 81.15625 -254.535156 77.46875 -250.4375 72.140625 -245.519531 L 20.492188 -194.285156 L 25.414062 -189.363281 L 84.84375 -226.253906 C 94.273438 -231.992188 99.191406 -235.269531 99.191406 -242.238281 Z M 99.191406 -242.238281 "/></g></g></g></g></g></svg>